<svg width="24" height="24" viewBox="0 0 24 24" fill="none" xmlns="http://www.w3.org/2000/svg">
<path fill-rule="evenodd" clip-rule="evenodd" d="M11.9991 4.93359C6.58326 4.93359 2.17773 9.39369 2.17773 14.8893C2.17773 15.8865 2.33119 16.8601 2.6007 17.7713C2.67902 18.0361 2.52785 18.3143 2.26304 18.3926C1.99824 18.4709 1.72008 18.3197 1.64176 18.0549C1.34682 17.0577 1.17773 15.9886 1.17773 14.8893C1.17773 8.85408 6.01839 3.93359 11.9991 3.93359C17.9797 3.93359 22.8204 8.85408 22.8204 14.8893C22.8204 15.9843 22.666 17.0558 22.3545 18.0611C22.2727 18.3249 21.9927 18.4725 21.7289 18.3907C21.4651 18.309 21.3175 18.0289 21.3993 17.7651C21.6791 16.8621 21.8204 15.8909 21.8204 14.8893C21.8204 9.39369 17.4148 4.93359 11.9991 4.93359ZM11.9991 6.35265C12.2752 6.35265 12.4991 6.57651 12.4991 6.85265V8.38472C12.4991 8.66087 12.2752 8.88472 11.9991 8.88472C11.7229 8.88472 11.4991 8.66087 11.4991 8.38472V6.85265C11.4991 6.57651 11.7229 6.35265 11.9991 6.35265ZM5.97415 8.8644C6.16941 8.66914 6.48599 8.66914 6.68126 8.8644L7.75639 9.93954C7.95166 10.1348 7.95166 10.4514 7.75639 10.6466C7.56113 10.8419 7.24455 10.8419 7.04929 10.6466L5.97415 9.57151C5.77889 9.37625 5.77889 9.05966 5.97415 8.8644ZM18.0374 8.8644C18.2327 9.05966 18.2327 9.37625 18.0374 9.57151L16.9623 10.6466C16.767 10.8419 16.4504 10.8419 16.2552 10.6466C16.0599 10.4514 16.0599 10.1348 16.2552 9.93954L17.3303 8.8644C17.5256 8.66914 17.8421 8.66914 18.0374 8.8644ZM10.7983 16.154C10.6286 16.8747 10.5369 17.3878 10.5369 17.5906C10.5369 18.403 11.2001 19.0662 12.0125 19.0662C12.8249 19.0662 13.4881 18.403 13.4881 17.5906C13.4881 17.3856 13.3945 16.8719 13.2215 16.1503C13.0545 15.4536 12.8287 14.6227 12.5958 13.8229C12.3909 13.1192 12.1818 12.4444 12.0041 11.9113C11.8256 12.4447 11.6176 13.1208 11.4145 13.8265C11.1842 14.6266 10.9622 15.4579 10.7983 16.154ZM11.733 10.1837C11.785 10.1509 11.882 10.1022 12.0125 10.1022C12.165 10.1022 12.2716 10.169 12.3167 10.2018C12.3672 10.2384 12.4018 10.277 12.4207 10.2999C12.4592 10.3463 12.4875 10.3942 12.5051 10.426C12.543 10.4943 12.5809 10.5786 12.617 10.6654C12.6909 10.8433 12.7809 11.0895 12.8793 11.3773C13.0772 11.9558 13.3202 12.7338 13.5559 13.5433C13.7917 14.3529 14.022 15.2002 14.1939 15.9172C14.3599 16.6092 14.4881 17.2446 14.4881 17.5906C14.4881 18.9553 13.3772 20.0662 12.0125 20.0662C10.6478 20.0662 9.53693 18.9553 9.53693 17.5906C9.53693 17.2491 9.66201 16.6165 9.82491 15.9248C9.9936 15.2085 10.2201 14.3608 10.4535 13.5499C10.6868 12.7394 10.9288 11.9591 11.1291 11.3781C11.2286 11.0893 11.321 10.8405 11.3991 10.6597C11.4371 10.5717 11.4783 10.484 11.5213 10.4122C11.5415 10.3783 11.574 10.3277 11.6188 10.2793C11.6414 10.2549 11.6793 10.2177 11.733 10.1837ZM3.56992 14.8893C3.56992 14.6132 3.79377 14.3893 4.06992 14.3893H5.60199C5.87813 14.3893 6.10199 14.6132 6.10199 14.8893C6.10199 15.1654 5.87813 15.3893 5.60199 15.3893H4.06992C3.79377 15.3893 3.56992 15.1654 3.56992 14.8893ZM17.9096 14.8893C17.9096 14.6132 18.1334 14.3893 18.4096 14.3893H19.9416C20.2178 14.3893 20.4416 14.6132 20.4416 14.8893C20.4416 15.1654 20.2178 15.3893 19.9416 15.3893H18.4096C18.1334 15.3893 17.9096 15.1654 17.9096 14.8893Z" fill="currentColor"/>
</svg>
